<svg aria-hidden="true"
 style="position:absolute;width:0;height:0;overflow:hidden" 
 xmlns="http://www.w3.org/2000/svg">
 <defs>
 <symbol id="icon-astronaut-1" viewBox="0 0 32 32">
 <path fill="#2196f3" style="fill:var(--color1, #2196f3)" d="M31.974 4.524a.5343.5343 0 0 0-.43-.363l-1.91-.278-.855-1.731c-.179-.365-.777-.365-.956 0l-.855 1.731-1.91.278a.5354.5354 0 0 0-.431.363.5342.5342 0 0 0 .135.547l1.383 1.348-.326 1.903c-.034.2.048.402.212.522.166.121.382.135.562.04l1.709-.899 1.709.899c.078.041.164.061.249.061.11 0 .221-.034.314-.102a.5347.5347 0 0 0 .212-.522l-.326-1.903 1.383-1.348a.5363.5363 0 0 0 .135-.547zm-2.463 1.327a.5335.5335 0 0 0-.153.472l.191 1.114-1-.526c-.078-.041-.163-.061-.249-.061s-.17.02-.249.061l-1.001.526.191-1.114a.5344.5344 0 0 0-.153-.472l-.81-.789 1.119-.163a.5324.5324 0 0 0 .402-.292l.5-1.013.5 1.013c.078.157.228.267.402.292l1.119.163-.809.789zM26.134 20.522h-1.067v1.067h1.067v-1.067zM26.134 22.656h-1.067v1.067h1.067v-1.067zM27.2 21.589h-1.067v1.067H27.2v-1.067zM25.067 21.589H24v1.067h1.067v-1.067zM22.4 26.389h-1.067v1.067H22.4v-1.067zM22.4 28.522h-1.067v1.067H22.4v-1.067zM23.467 27.456H22.4v1.067h1.067v-1.067zM21.333 27.456h-1.067v1.067h1.067v-1.067zM16 24.256h-1.067v1.067H16v-1.067zM16 26.389h-1.067v1.067H16v-1.067zM17.067 25.322H16v1.067h1.067v-1.067zM14.933 25.322h-1.067v1.067h1.067v-1.067zM5.867 6.122H4.8v1.067h1.067V6.122zM5.867 8.255H4.8v1.067h1.067V8.255z"/>
 <path fill="#2196f3" style="fill:var(--color1, #2196f3)" d="M6.933 7.189H5.866v1.067h1.067V7.189zM4.8 7.189H3.733v1.067H4.8V7.189z"/>
 <path fill="#212121" style="fill:var(--color2, #212121)" d="M24.715 14.159c-.287-.388-.709-.637-1.188-.705-.481-.068-.956.058-1.34.352l-1.252.96-1.898 1.417-1.358-.541c2.421-1.086 4.114-3.508 4.114-6.32 0-3.823-3.123-6.933-6.961-6.933s-6.961 3.11-6.961 6.933c0 1.386.414 2.674 1.12 3.758l-2.764-.024h-.005c-.009 0-.015.004-.023.005a.5147.5147 0 0 0-.155.031c-.013.005-.026.008-.038.013-.006.003-.013.003-.019.006l-3.233 1.596c-.001 0-.001 0-.001.001l-1.893.911a.3967.3967 0 0 0-.063.035c-.755.502-1.012 1.489-.598 2.295.22.429.595.745 1.056.889.178.055.359.083.539.083.29 0 .577-.071.839-.211l1.388-.738 2.264-1.169 1.357-.008L2.2 22.211c-.001.001-.001.001-.002.001L.859 23.545c-.316.315-.49.732-.49 1.178s.174.863.49 1.179c.325.323.752.485 1.179.485s.854-.162 1.18-.485l1.314-1.309 1.741-1.3.901.897-1.762 1.754c0 .001-.001.001-.002.001l-1.339 1.333c-.316.315-.49.732-.49 1.178s.174.863.49 1.179c.325.323.753.485 1.18.485s.855-.162 1.18-.485l3.482-3.467c.001-.001.001-.001.001-.002l1.01-1-.004-.004c.006-.006.015-.009.022-.015l5.166-5.658 3.471.494c.025.004.05.005.075.005.065 0 .127-.015.187-.038.018-.006.033-.015.05-.023.019-.01.039-.015.058-.027l3.213-2.133c.012-.008.018-.021.029-.029.013-.01.029-.014.041-.026l1.271-1.191c.662-.62.753-1.635.212-2.362zM2.13 17.77a.714.714 0 0 1-.558.052.7167.7167 0 0 1-.427-.358.714.714 0 0 1 .214-.902l1.314-.632.449 1.313-.992.527zm3.498-1.828-1.548.8-.439-1.283 2.027-1.001-.04 1.484zm15.099-6.62c0 .918-.219 1.785-.599 2.559l-4.181-1.899c-.044-.573-.341-1.075-.788-1.388l1.464-4.86c2.378.756 4.105 2.974 4.105 5.588zm-11.789 0c0-3.235 2.644-5.867 5.894-5.867.253 0 .5.021.745.052l-1.432 4.754c-.019-.001-.037-.006-.057-.006-1.033 0-1.873.837-1.873 1.867s.84 1.867 1.873 1.867c.694 0 1.294-.383 1.618-.945l3.862 1.755c-1.075 1.446-2.795 2.39-4.737 2.39-3.25 0-5.894-2.632-5.894-5.867zm5.956.8c0 .441-.362.8-.806.8s-.806-.359-.806-.8c0-.441.362-.8.806-.8s.806.359.806.8zM2.465 25.146c-.236.234-.619.234-.854.001-.114-.114-.176-.263-.176-.423s.062-.309.176-.421l.962-.959.851.848-.959.955zm3.214 3.734c-.236.234-.619.235-.855.001-.114-.114-.176-.263-.176-.423s.062-.309.176-.421l.963-.959.852.848-.96.955zm3.481-3.469c-.001 0-.001 0-.002.001l-1.765 1.76-.852-.848 1.763-1.755s.001-.001.002-.001c.04-.04.065-.088.09-.135.007-.014.02-.026.026-.04.017-.041.019-.085.026-.129.003-.025.014-.047.014-.073 0-.036-.013-.07-.02-.106-.006-.032-.006-.065-.019-.095-.02-.05-.055-.094-.091-.138-.01-.012-.014-.027-.025-.038h-.001c-.001 0-.001-.002-.001-.002l-1.607-1.6c-.017-.017-.039-.024-.058-.038a.5067.5067 0 0 0-.087-.058c-.03-.015-.061-.024-.093-.033a.5073.5073 0 0 0-.103-.02.5002.5002 0 0 0-.095.005.5307.5307 0 0 0-.104.02c-.034.011-.063.027-.094.045-.02.011-.042.015-.061.029L4.23 23.486l-.901-.897 2.399-2.386 4.361 4.289-.928.919zm6.819-7.017c-.015-.002-.03.004-.045.003a.5556.5556 0 0 0-.115.007.5364.5364 0 0 0-.088.021.5413.5413 0 0 0-.097.047.4923.4923 0 0 0-.083.061c-.013.011-.028.017-.04.029l-4.698 5.146-4.328-4.257 2.833-2.818c.209-.208.21-.546.002-.755a.5314.5314 0 0 0-.381-.156v-.001l-2.219.013.028-1.607 3.104.027c1.265 1.294 3.029 2.101 4.981 2.101.437 0 .864-.045 1.279-.123.04.032.079.065.13.085l2.41.96.152.758.178.885-3.003-.427zm4.041.178-.313-1.558 1.446-1.08.947 1.257-2.08 1.381zm3.754-2.831-.838.785-.931-1.236.831-.637c.155-.119.351-.168.543-.143.193.027.364.128.48.284.217.292.18.699-.085.947z"/>
 <path fill="#212121" style="fill:var(--color2, #212121)" d="m13.602 18.544-2.143-2.133c-.207-.207-.545-.207-.753 0l-2.142 2.133c-.1.101-.157.236-.157.378s.056.278.157.378l2.142 2.133c.104.103.241.155.377.155s.273-.052.376-.155l2.143-2.133c.1-.1.157-.236.157-.378s-.057-.278-.157-.378zm-2.519 1.759-1.387-1.381 1.387-1.381 1.387 1.381-1.387 1.381zM17.164 5.071l-.258 1.036c.071.018 1.738.452 1.738 2.149h1.067c0-2.017-1.666-2.965-2.547-3.185zM19.711 9.322h-1.067v1.067h1.067V9.322z"/></symbol></defs></svg>